<?xml version="1.0" standalone="no"?>
<!DOCTYPE svg PUBLIC "-//W3C//DTD SVG 20010904//EN"
 "http://www.w3.org/TR/2001/REC-SVG-20010904/DTD/svg10.dtd">
<svg version="1.0" xmlns="http://www.w3.org/2000/svg"
 width="3000.000000pt" height="937.000000pt" viewBox="0 0 3000.000000 937.000000"
 preserveAspectRatio="xMidYMid meet">

<g transform="translate(0.000000,937.000000) scale(0.100000,-0.100000)"
fill="#000000" stroke="none">
<path d="M5236 6413 c-2 -10 -179 -643 -393 -1408 l-388 -1390 0 -130 c0 -110
4 -140 23 -196 45 -132 138 -253 249 -327 29 -19 55 -33 56 -31 2 2 192 679
422 1504 229 825 421 1507 426 1515 7 13 99 15 761 11 693 -3 759 -5 826 -22
262 -67 435 -284 449 -564 19 -366 -156 -681 -462 -830 -146 -72 -186 -77
-608 -82 -354 -5 -369 -4 -364 14 3 10 31 110 62 223 31 113 61 220 66 238
l11 32 260 0 c171 0 274 4 300 12 51 15 121 77 147 131 25 52 28 154 6 196
-20 39 -69 78 -113 91 -23 6 -216 10 -512 10 l-475 0 -228 -823 c-126 -452
-231 -845 -234 -872 -11 -99 42 -228 116 -282 44 -33 104 -61 168 -77 117 -30
97 -60 199 307 l90 322 459 6 c500 6 530 8 715 69 266 87 550 297 694 513 109
164 171 329 202 539 22 153 15 417 -15 535 -92 365 -313 620 -634 729 -158 54
-158 54 -1258 54 -961 0 -1018 -1 -1023 -17z"/>
<path d="M20979 6122 c-77 -40 -112 -93 -117 -178 -6 -85 16 -142 71 -189 140
-120 366 -55 407 117 38 155 -66 277 -236 278 -59 0 -81 -5 -125 -28z"/>
<path d="M21800 4920 l0 -1140 190 0 190 0 0 1140 0 1140 -190 0 -190 0 0
-1140z"/>
<path d="M9480 4856 l0 -1076 200 0 200 0 0 310 0 310 264 0 c145 0 310 5 367
10 397 40 661 235 746 550 25 91 24 328 -1 420 -60 222 -226 397 -456 481
-172 62 -165 62 -767 66 l-553 4 0 -1075z m1073 715 c97 -25 148 -52 208 -108
61 -57 95 -127 110 -225 30 -189 -55 -365 -207 -435 -115 -52 -139 -55 -471
-60 l-313 -5 0 426 0 426 298 0 c263 0 308 -2 375 -19z"/>
<path d="M18760 4856 l0 -1076 200 0 200 0 0 310 0 310 270 0 c304 0 422 10
560 46 273 71 456 234 537 479 24 72 27 95 27 235 1 176 -11 238 -69 355 -79
161 -232 289 -424 354 -157 54 -159 54 -748 58 l-553 4 0 -1075z m1074 714
c102 -26 167 -62 226 -127 58 -63 88 -137 96 -236 15 -178 -62 -328 -207 -402
-101 -52 -142 -57 -476 -62 l-313 -5 0 426 0 426 298 0 c265 0 308 -2 376 -20z"/>
<path d="M14880 5600 l0 -190 -135 0 -135 0 0 -155 0 -155 135 0 135 0 0 -427
c1 -476 7 -541 60 -650 56 -113 162 -196 305 -239 75 -23 292 -26 375 -5 67
16 180 70 187 88 5 12 -81 248 -96 265 -3 4 -30 -5 -60 -19 -70 -35 -190 -44
-256 -19 -53 21 -100 71 -114 123 -7 24 -11 197 -11 461 l0 422 215 0 215 0 0
155 0 155 -215 0 -215 0 -2 188 -3 187 -192 3 -193 2 0 -190z"/>
<path d="M24720 5600 l0 -190 -135 0 -135 0 0 -155 0 -155 135 0 135 0 0 -442
c0 -489 4 -527 60 -638 60 -119 174 -205 320 -241 83 -21 300 -18 375 5 65 19
175 74 175 87 0 9 -98 260 -104 266 -2 2 -27 -9 -55 -23 -40 -21 -71 -28 -132
-32 -125 -7 -193 29 -236 123 -16 36 -18 81 -21 468 l-3 427 221 0 220 0 0
155 0 155 -220 0 -220 0 0 190 0 190 -190 0 -190 0 0 -190z"/>
<path d="M12064 5430 c-170 -24 -333 -79 -444 -151 l-61 -39 57 -108 c31 -59
65 -122 76 -139 l20 -33 41 29 c113 77 253 120 412 128 129 6 199 -5 285 -49
99 -49 157 -145 163 -269 l2 -54 -315 -6 c-275 -6 -325 -9 -397 -27 -225 -58
-358 -191 -386 -386 -23 -158 25 -299 138 -404 107 -100 235 -149 419 -159
229 -12 416 48 529 171 l37 41 0 -98 0 -97 181 0 180 0 -4 568 c-4 625 -4 624
-69 761 -46 98 -149 197 -258 249 -121 57 -206 74 -390 78 -85 1 -182 -1 -216
-6z m554 -1037 c3 -108 -11 -145 -84 -223 -142 -152 -461 -176 -586 -43 -58
60 -74 153 -39 228 22 49 43 68 105 96 67 29 149 37 391 35 l210 -1 3 -92z"/>
<path d="M14254 5425 c-84 -15 -134 -30 -189 -57 -63 -31 -143 -95 -175 -140
l-30 -41 0 116 0 117 -185 0 -185 0 0 -820 0 -820 195 0 195 0 0 453 c0 375 3
463 15 512 25 93 50 141 107 201 89 94 190 134 346 134 l92 0 0 180 0 180 -57
-1 c-32 0 -90 -7 -129 -14z"/>
<path d="M23280 5434 c-380 -70 -613 -274 -708 -619 -26 -93 -22 -345 6 -447
63 -230 210 -407 425 -513 145 -71 223 -88 412 -89 133 0 175 4 248 22 350 87
585 351 628 702 52 437 -197 810 -616 921 -59 15 -118 22 -225 24 -80 2 -156
2 -170 -1z m304 -346 c238 -73 371 -338 312 -619 -20 -92 -58 -163 -128 -235
-214 -223 -599 -182 -757 80 -49 81 -71 172 -71 286 0 166 47 286 151 385 129
124 305 160 493 103z"/>
<path d="M15843 5403 c2 -10 159 -371 347 -803 188 -432 346 -795 350 -807 7
-16 0 -41 -29 -100 -75 -153 -148 -206 -281 -206 -88 1 -168 27 -235 78 l-44
34 -72 -131 c-39 -72 -72 -138 -73 -146 -2 -25 99 -88 185 -116 104 -34 227
-48 334 -35 206 23 356 124 463 311 35 62 825 1868 839 1921 5 16 -8 17 -178
17 l-184 0 -254 -596 c-140 -327 -258 -597 -261 -599 -3 -2 -120 266 -260 596
l-255 599 -198 0 c-185 0 -199 -1 -194 -17z"/>
<path d="M20910 4600 l0 -820 190 0 190 0 0 820 0 820 -190 0 -190 0 0 -820z"/>
</g>
</svg>
